<svg xmlns="http://www.w3.org/2000/svg" width="29.016" height="35.491" viewBox="0 0 29.016 35.491">
                                        <g id="XMLID_110_" transform="translate(0 0)">
                                            <path id="XMLID_138_" d="M288.509,701.152c-2.929,5.169-1.034,13.094,2.24,17.918,1.723,2.412,3.273,4.479,5.685,4.479h.172a5.708,5.708,0,0,0,2.584-.689,7.51,7.51,0,0,1,3.1-.689,6.663,6.663,0,0,1,2.929.689,6.491,6.491,0,0,0,2.757.689c2.584,0,4.135-2.412,5.685-4.479a15.129,15.129,0,0,0,2.412-5h0c0-.172,0-.345-.172-.345h0a7.2,7.2,0,0,1-4.479-6.891,7.411,7.411,0,0,1,3.618-6.375h0l.172-.172v-.172a8.177,8.177,0,0,0-6.547-3.618h-.517a10.448,10.448,0,0,0-4.135,1.034,5.955,5.955,0,0,1-2.068.517,17.816,17.816,0,0,1-2.067-.517,8.01,8.01,0,0,0-3.618-.861h-.172A8.979,8.979,0,0,0,288.509,701.152Z" transform="translate(-287.058 -688.058)" fill="#fff"></path>
                                            <path id="XMLID_116_" d="M302.664,691.6a7.426,7.426,0,0,0-5.341,2.757,7.184,7.184,0,0,0-1.9,5.686c0,.172.172.172.345.172h.345a6.828,6.828,0,0,0,5-2.584,8.284,8.284,0,0,0,1.9-5.858A.534.534,0,0,0,302.664,691.6Z" transform="translate(-281.056 -691.6)" fill="#fff"></path>
                                        </g>
                                    </svg>