<svg class="card-icon" xmlns="http://www.w3.org/2000/svg" width="108.447" height="88.961" viewBox="0 0 108.447 88.961">
                                            <g id="uniform" transform="translate(-0.002 -46)">
                                                <path id="Контур_4416" data-name="Контур 4416" d="M308.709,186H298.118A2.118,2.118,0,0,0,296,188.118v12.709a2.118,2.118,0,0,0,2.118,2.118h10.591a2.118,2.118,0,0,0,2.118-2.118V188.118A2.118,2.118,0,0,0,308.709,186Zm-2.118,12.709h-6.354v-8.472h6.354Z" transform="translate(-233.302 -110.346)" fill="#fff"></path>
                                                <path id="Контур_4417" data-name="Контур 4417" d="M107.829,77.545,85.377,55.093l-.031-.028c-.04-.038-.079-.075-.122-.11-.016-.013-.033-.024-.049-.036-.039-.03-.077-.06-.118-.087l-.04-.025c-.045-.029-.091-.057-.138-.082l-.027-.013c-.052-.027-.105-.053-.16-.076l-.018-.007c-.058-.023-.116-.045-.176-.063l-.022-.006c-.059-.017-.118-.033-.179-.045l-.054-.008c-.05-.009-.1-.018-.152-.023a2.011,2.011,0,0,0-.212-.011H76.284L68.432,46.62a2.11,2.11,0,0,0-.157-.142c-.043-.035-.087-.067-.132-.1l-.035-.025c-.054-.036-.11-.069-.166-.1l-.011-.006c-.057-.031-.116-.058-.176-.083l-.011-.005c-.057-.024-.115-.044-.173-.062l-.023-.008c-.055-.017-.11-.03-.165-.042l-.036-.009c-.054-.011-.11-.018-.165-.025l-.041-.006a2.077,2.077,0,0,0-.208-.01H41.518c-.069,0-.139,0-.208.01l-.04.006c-.055.007-.11.014-.165.025l-.035.009c-.056.012-.111.025-.166.042l-.022.008c-.059.018-.117.039-.174.062l-.011,0c-.06.025-.119.053-.177.083l-.008.005c-.057.031-.114.064-.169.1l-.033.024c-.045.032-.09.064-.134.1a2.109,2.109,0,0,0-.157.142l-7.852,7.852H24.572q-.106,0-.211.011c-.051.005-.1.014-.152.023l-.053.008c-.061.012-.12.028-.179.045l-.021.006c-.06.018-.119.04-.177.063l-.018.007c-.055.023-.108.049-.161.076l-.026.013c-.047.025-.093.054-.138.083-.013.008-.027.016-.04.025-.041.028-.08.058-.119.088-.016.012-.032.023-.048.036-.046.037-.089.078-.131.119l-.022.02L.623,77.545a2.118,2.118,0,0,0,0,3L13.331,93.249a2.118,2.118,0,0,0,3,0l6.127-6.127v45.721a2.118,2.118,0,0,0,2.118,2.118H83.879A2.118,2.118,0,0,0,86,132.843V87.122l6.127,6.128a2.118,2.118,0,0,0,3,0L107.829,80.54a2.118,2.118,0,0,0,0-3ZM81.761,82.009v40.243H26.69V58.709h5.477L44.255,70.8a2.118,2.118,0,0,0,3,0l.62-.62L51.9,74.2l-6.09,26.391a2.119,2.119,0,0,0,.566,1.974l6.354,6.354a2.118,2.118,0,0,0,3,0l6.354-6.354a2.118,2.118,0,0,0,.566-1.974L56.553,74.2l4.027-4.027.62.62a2.118,2.118,0,0,0,3,0L76.284,58.709h5.477v23.3ZM39.4,126.488v4.236H35.162v-4.236Zm4.236,0h4.236v4.236H43.635Zm8.472,0h4.236v4.236H52.107Zm8.472,0h4.236v4.236H60.58Zm8.472,0h4.236v4.236H69.052ZM41.517,51.114l9.713,9.713-4.856,4.856h0l-.619.619L36.04,56.591Zm30.894,5.477L62.7,66.3l-.62-.62h0l-4.856-4.856,9.713-9.713ZM54.226,82.955,58.252,100.4l-4.027,4.027L50.2,100.4Zm0-12.415-3.359-3.359,3.359-3.359,3.359,3.359Zm0-12.709-7.6-7.595H61.82Zm-39.4,30.925L5.115,79.043,22.454,61.7V81.13ZM26.69,126.488h4.236v4.236H26.69Zm50.835,4.236v-4.236h4.236v4.236Zm16.1-41.969L86,81.131V61.7l17.338,17.338Z" transform="translate(0 0)" fill="#fff"></path>
                                            </g>
                                        </svg>