<svg class="card-icon" xmlns="http://www.w3.org/2000/svg" width="92.962" height="89.091" viewBox="0 0 92.962 89.091">
                                            <g id="education" transform="translate(0 -10.66)">
                                                <g id="Сгруппировать_2611" data-name="Сгруппировать 2611" transform="translate(0 57.143)">
                                                    <g id="Сгруппировать_2610" data-name="Сгруппировать 2610">
                                                        <path id="Контур_4411" data-name="Контур 4411" d="M87.152,286.04H84.884a5.81,5.81,0,0,0,.331-1.937v-11.62a5.81,5.81,0,0,0-5.81-5.81H5.81A5.81,5.81,0,0,0,0,272.483v15.494a1.937,1.937,0,0,0,1.937,1.937H8.078a5.83,5.83,0,0,0-.331,1.937v11.62a5.81,5.81,0,0,0,5.81,5.81H91.025a1.937,1.937,0,0,0,1.937-1.937V291.85A5.81,5.81,0,0,0,87.152,286.04Zm1.937,19.367H13.557a1.937,1.937,0,0,1-1.937-1.937V291.85a1.937,1.937,0,0,1,1.937-1.937,1.937,1.937,0,1,0,0-3.874H3.873V272.483a1.937,1.937,0,0,1,1.937-1.937H79.4a1.937,1.937,0,0,1,1.937,1.937V284.1A1.937,1.937,0,0,1,79.4,286.04a1.937,1.937,0,1,0,0,3.874h7.747a1.937,1.937,0,0,1,1.937,1.937Z" transform="translate(0 -266.673)" fill="#fff"></path>
                                                    </g>
                                                </g>
                                                <g id="Сгруппировать_2613" data-name="Сгруппировать 2613" transform="translate(7.747 64.89)">
                                                    <g id="Сгруппировать_2612" data-name="Сгруппировать 2612">
                                                        <path id="Контур_4412" data-name="Контур 4412" d="M94.957,309.34H44.6a1.937,1.937,0,0,0-1.937,1.937v5.81H46.54v-3.873H93.02v3.873h3.873v-5.81A1.937,1.937,0,0,0,94.957,309.34Z" transform="translate(-42.666 -309.34)" fill="#fff"></path>
                                                    </g>
                                                </g>
                                                <g id="Сгруппировать_2615" data-name="Сгруппировать 2615" transform="translate(65.848 64.89)">
                                                    <g id="Сгруппировать_2614" data-name="Сгруппировать 2614">
                                                        <rect id="Прямоугольник_2041" data-name="Прямоугольник 2041" width="3.873" height="7.747" fill="#fff"></rect>
                                                    </g>
                                                </g>
                                                <g id="Сгруппировать_2617" data-name="Сгруппировать 2617" transform="translate(73.595 64.89)">
                                                    <g id="Сгруппировать_2616" data-name="Сгруппировать 2616">
                                                        <rect id="Прямоугольник_2042" data-name="Прямоугольник 2042" width="3.873" height="7.747" fill="#fff"></rect>
                                                    </g>
                                                </g>
                                                <g id="Сгруппировать_2619" data-name="Сгруппировать 2619" transform="translate(23.24 84.257)">
                                                    <g id="Сгруппировать_2618" data-name="Сгруппировать 2618">
                                                        <path id="Контур_4413" data-name="Контур 4413" d="M186.1,416.007v3.873H131.873v-3.873H128v5.81a1.937,1.937,0,0,0,1.937,1.937h58.1a1.937,1.937,0,0,0,1.937-1.937v-5.81Z" transform="translate(-128 -416.007)" fill="#fff"></path>
                                                    </g>
                                                </g>
                                                <g id="Сгруппировать_2621" data-name="Сгруппировать 2621" transform="translate(15.494 84.257)">
                                                    <g id="Сгруппировать_2620" data-name="Сгруппировать 2620">
                                                        <rect id="Прямоугольник_2043" data-name="Прямоугольник 2043" width="3.873" height="7.747" fill="#fff"></rect>
                                                    </g>
                                                </g>
                                                <g id="Сгруппировать_2623" data-name="Сгруппировать 2623" transform="translate(44.542 10.66)">
                                                    <g id="Сгруппировать_2622" data-name="Сгруппировать 2622">
                                                        <path id="Контур_4414" data-name="Контур 4414" d="M251.132,10.662q-.165,0-.33,0a5.647,5.647,0,0,0-5.48,5.81v11.62H249.2V16.5a1.78,1.78,0,0,1,1.937-1.96h5.81V10.662Z" transform="translate(-245.319 -10.66)" fill="#fff"></path>
                                                    </g>
                                                </g>
                                                <g id="Сгруппировать_2625" data-name="Сгруппировать 2625" transform="translate(13.557 76.51)">
                                                    <g id="Сгруппировать_2624" data-name="Сгруппировать 2624">
                                                        <rect id="Прямоугольник_2044" data-name="Прямоугольник 2044" width="48.418" height="3.873" fill="#fff"></rect>
                                                    </g>
                                                </g>
                                                <g id="Сгруппировать_2627" data-name="Сгруппировать 2627" transform="translate(71.658 76.51)">
                                                    <g id="Сгруппировать_2626" data-name="Сгруппировать 2626">
                                                        <rect id="Прямоугольник_2045" data-name="Прямоугольник 2045" width="7.747" height="3.873" fill="#fff"></rect>
                                                    </g>
                                                </g>
                                                <g id="Сгруппировать_2629" data-name="Сгруппировать 2629" transform="translate(21.304 22.282)">
                                                    <g id="Сгруппировать_2628" data-name="Сгруппировать 2628">
                                                        <path id="Контур_4415" data-name="Контур 4415" d="M154.13,74.673h-3.873a13.5,13.5,0,0,0-7.747,2.444,13.5,13.5,0,0,0-7.747-2.444H130.89A13.572,13.572,0,0,0,117.333,88.23V99.85a13.557,13.557,0,0,0,1.766,6.7l3.366-1.914a9.7,9.7,0,0,1-1.259-4.782V88.23a9.7,9.7,0,0,1,9.683-9.683h3.873a9.665,9.665,0,0,1,6.455,2.481,1.937,1.937,0,0,0,2.584,0,9.665,9.665,0,0,1,6.455-2.481h3.874a9.7,9.7,0,0,1,9.683,9.683V99.85a9.661,9.661,0,0,1-1.251,4.762l3.372,1.91a13.568,13.568,0,0,0,1.753-6.672V88.23A13.572,13.572,0,0,0,154.13,74.673Z" transform="translate(-117.333 -74.673)" fill="#fff"></path>
                                                    </g>
                                                </g>
                                            </g>
                                        </svg>