<svg class="card-icon" xmlns="http://www.w3.org/2000/svg" width="112.011" height="88.882" viewBox="0 0 112.011 88.882">
                                            <g id="bed" transform="translate(0 -52.862)">
                                                <g id="Сгруппировать_2630" data-name="Сгруппировать 2630" transform="translate(0 52.862)">
                                                    <path id="Контур_4418" data-name="Контур 4418" d="M112.011,103.457a9.725,9.725,0,0,0-5.291-8.712c-3.328-1.7-7.638-2.565-12.808-2.565H37.7a11.244,11.244,0,0,0-2.647-5.35l-7.971-8.861a11.73,11.73,0,0,0-7.981-3.749l-1.432-.1a5.634,5.634,0,0,0-2.193.291V69.725a5.742,5.742,0,0,0-1.8-4.172,7.74,7.74,0,1,0-11.889,0A5.742,5.742,0,0,0,0,69.726v69.83a2.188,2.188,0,0,0,2.188,2.188H9.739a2.188,2.188,0,0,0,2.178-1.982c.261-2.755,1.717-10.321,5.327-13.714H23.1a2.188,2.188,0,0,0,0-4.375H4.375v-19.26h29.2v5.7a6.124,6.124,0,0,0,6.117,6.117h66.2a6.143,6.143,0,0,0,1.741-.252v7.695H42.351a2.188,2.188,0,1,0,0,4.375H94.768c3.6,3.384,5.061,10.957,5.327,13.714a2.188,2.188,0,0,0,2.178,1.982h7.551a2.188,2.188,0,0,0,2.188-2.188ZM15.486,81.563c.033-.932-.1-1.9.673-2.581s1.7-.464,2.638-.4a7.287,7.287,0,0,1,5.037,2.31L31.8,89.756a7.46,7.46,0,0,1,1.745,5.636,2.716,2.716,0,0,1-.762,2.193,2.833,2.833,0,0,1-2.144.42,7.462,7.462,0,0,1-5.421-2.33l-7.971-8.861a7.4,7.4,0,0,1-1.766-5.253ZM4.375,98.037V69.726a1.385,1.385,0,0,1,1.383-1.383H9.722A1.385,1.385,0,0,1,11.1,69.726V98.036H4.375Zm11.1-6.649,5.981,6.649H15.48ZM7.74,57.238A3.365,3.365,0,1,1,4.375,60.6,3.369,3.369,0,0,1,7.74,57.238Zm.092,80.131H4.375v-11.32h7.336a33.334,33.334,0,0,0-3.879,11.32Zm31.861-27.514a1.743,1.743,0,0,1-1.741-1.741V96.555H93.912c4.471,0,8.111.7,10.816,2.085a5.368,5.368,0,0,1,2.908,4.817V108.1s0,.006,0,.009a1.743,1.743,0,0,1-1.741,1.741h-66.2Zm64.486,27.514a33.345,33.345,0,0,0-3.879-11.32h7.336v11.32Z" transform="translate(0 -52.862)" fill="#fff"></path>
                                                    <path id="Контур_4419" data-name="Контур 4419" d="M143.819,368.765a2.187,2.187,0,1,0-1.184,2.857A2.207,2.207,0,0,0,143.819,368.765Z" transform="translate(-109.072 -298.604)" fill="#fff"></path>
                                                </g>
                                            </g>
                                        </svg>